<svg width="16" height="16" viewBox="0 0 16 16" fill="none" xmlns="http://www.w3.org/2000/svg">
<path d="M8 7.32C7.62112 7.32 7.25776 7.1725 6.98985 6.90995C6.72194 6.6474 6.57143 6.2913 6.57143 5.92C6.57143 5.5487 6.72194 5.1926 6.98985 4.93005C7.25776 4.6675 7.62112 4.52 8 4.52C8.37888 4.52 8.74224 4.6675 9.01015 4.93005C9.27806 5.1926 9.42857 5.5487 9.42857 5.92C9.42857 6.10385 9.39162 6.2859 9.31983 6.45576C9.24804 6.62561 9.14281 6.77995 9.01015 6.90995C8.8775 7.03995 8.72001 7.14307 8.54669 7.21343C8.37337 7.28379 8.1876 7.32 8 7.32ZM8 2C6.93913 2 5.92172 2.413 5.17157 3.14814C4.42143 3.88328 4 4.88035 4 5.92C4 8.86 8 13.2 8 13.2C8 13.2 12 8.86 12 5.92C12 4.88035 11.5786 3.88328 10.8284 3.14814C10.0783 2.413 9.06087 2 8 2Z" fill="#2D2C31"/>
</svg>
