<svg width="16" height="14" viewBox="0 0 16 14" fill="none" xmlns="http://www.w3.org/2000/svg">
<path d="M1.5 0.75V12.5H15.25C15.4489 12.5 15.6397 12.579 15.7803 12.7197C15.921 12.8603 16 13.0511 16 13.25C16 13.4489 15.921 13.6397 15.7803 13.7803C15.6397 13.921 15.4489 14 15.25 14H0.75C0.551088 14 0.360322 13.921 0.21967 13.7803C0.0790176 13.6397 0 13.4489 0 13.25L0 0.75C0 0.551088 0.0790176 0.360322 0.21967 0.21967C0.360322 0.0790177 0.551088 0 0.75 0C0.948912 0 1.13968 0.0790177 1.28033 0.21967C1.42098 0.360322 1.5 0.551088 1.5 0.75ZM15.78 3.28L10.53 8.53C10.3894 8.67045 10.1988 8.74934 10 8.74934C9.80125 8.74934 9.61063 8.67045 9.47 8.53L7 6.06L4.28 8.78C4.13785 8.91264 3.94975 8.9849 3.75536 8.98154C3.56097 8.97819 3.37548 8.89947 3.238 8.762C3.10053 8.62452 3.02181 8.43903 3.01846 8.24464C3.0151 8.05025 3.08736 7.86215 3.22 7.72L6.47 4.47C6.61063 4.32955 6.80125 4.25066 7 4.25066C7.19875 4.25066 7.38937 4.32955 7.53 4.47L10 6.94L14.72 2.22C14.8621 2.08736 15.0502 2.0151 15.2446 2.01846C15.439 2.02181 15.6245 2.10053 15.762 2.238C15.8995 2.37548 15.9782 2.56097 15.9815 2.75536C15.9849 2.94975 15.9126 3.13785 15.78 3.28Z" fill="#DE2E42"/>
</svg>
